<svg 
 xmlns="http://www.w3.org/2000/svg"
 xmlns:xlink="http://www.w3.org/1999/xlink"
  viewBox="0 0 14 14">
<path fill-rule="evenodd"  
 d="M12.717,14.000 L1.283,14.000 C0.574,14.000 -0.000,13.431 -0.000,12.738 L-0.000,2.813 C-0.000,2.132 0.562,1.579 1.246,1.559 L1.246,3.252 C1.246,4.018 1.881,4.634 2.664,4.634 L3.558,4.634 C4.341,4.634 4.984,4.018 4.984,3.252 L4.984,1.553 L9.015,1.553 L9.015,3.252 C9.015,4.018 9.659,4.634 10.442,4.634 L11.336,4.634 C12.119,4.634 12.754,4.018 12.754,3.252 L12.754,1.559 C13.438,1.579 14.000,2.132 14.000,2.813 L14.000,12.738 C14.000,13.429 13.424,14.000 12.717,14.000 ZM12.338,6.993 C12.338,6.693 12.090,6.450 11.784,6.450 L2.192,6.450 C1.885,6.450 1.637,6.693 1.637,6.993 L1.637,12.120 C1.637,12.419 1.885,12.662 2.192,12.662 L11.784,12.662 C12.090,12.662 12.338,12.419 12.338,12.120 L12.338,6.993 ZM10.401,11.921 L9.267,11.921 C9.088,11.921 8.942,11.779 8.942,11.604 L8.942,10.495 C8.942,10.320 9.088,10.178 9.267,10.178 L10.401,10.178 C10.581,10.178 10.726,10.320 10.726,10.495 L10.726,11.604 C10.726,11.779 10.581,11.921 10.401,11.921 ZM10.401,9.150 L9.267,9.150 C9.088,9.150 8.942,9.008 8.942,8.832 L8.942,7.724 C8.942,7.548 9.088,7.406 9.267,7.406 L10.401,7.406 C10.581,7.406 10.726,7.548 10.726,7.724 L10.726,8.832 C10.726,9.008 10.581,9.150 10.401,9.150 ZM7.567,11.921 L6.433,11.921 C6.254,11.921 6.108,11.779 6.108,11.604 L6.108,10.495 C6.108,10.320 6.254,10.178 6.433,10.178 L7.567,10.178 C7.746,10.178 7.892,10.320 7.892,10.495 L7.892,11.604 C7.892,11.779 7.746,11.921 7.567,11.921 ZM7.567,9.150 L6.433,9.150 C6.254,9.150 6.108,9.008 6.108,8.832 L6.108,7.724 C6.108,7.548 6.254,7.406 6.433,7.406 L7.567,7.406 C7.746,7.406 7.892,7.548 7.892,7.724 L7.892,8.832 C7.892,9.008 7.746,9.150 7.567,9.150 ZM4.733,11.921 L3.599,11.921 C3.419,11.921 3.274,11.779 3.274,11.604 L3.274,10.495 C3.274,10.320 3.419,10.178 3.599,10.178 L4.733,10.178 C4.912,10.178 5.058,10.320 5.058,10.495 L5.058,11.604 C5.058,11.779 4.912,11.921 4.733,11.921 ZM4.733,9.150 L3.599,9.150 C3.419,9.150 3.274,9.008 3.274,8.832 L3.274,7.724 C3.274,7.548 3.419,7.406 3.599,7.406 L4.733,7.406 C4.912,7.406 5.058,7.548 5.058,7.724 L5.058,8.832 C5.058,9.008 4.912,9.150 4.733,9.150 ZM11.315,3.727 L10.430,3.727 C10.162,3.727 9.944,3.514 9.944,3.252 L9.944,0.475 C9.944,0.213 10.162,-0.000 10.430,-0.000 L11.315,-0.000 C11.583,-0.000 11.801,0.213 11.801,0.475 L11.801,3.252 C11.801,3.514 11.583,3.727 11.315,3.727 ZM3.545,3.727 L2.661,3.727 C2.392,3.727 2.174,3.514 2.174,3.252 L2.174,0.475 C2.174,0.213 2.392,-0.000 2.661,-0.000 L3.545,-0.000 C3.814,-0.000 4.031,0.213 4.031,0.475 L4.031,3.252 C4.031,3.514 3.814,3.727 3.545,3.727 Z"/>
</svg>