<svg 
 xmlns="http://www.w3.org/2000/svg"
 xmlns:xlink="http://www.w3.org/1999/xlink"
 viewBox="0 0 27 23">
<path fill-rule="evenodd"
 d="M27.008,18.666 C24.868,18.666 22.678,17.324 21.299,16.277 C22.686,14.765 23.502,12.903 23.502,10.897 C23.502,5.801 18.239,1.669 11.747,1.669 C10.789,1.669 9.859,1.760 8.969,1.927 C10.860,0.720 13.291,-0.008 15.945,-0.008 C21.973,-0.008 26.860,3.746 26.860,8.380 C26.860,9.900 26.334,11.326 25.415,12.553 C25.376,14.026 25.484,17.222 27.008,18.666 ZM21.822,11.735 C21.822,16.370 16.935,20.124 10.907,20.124 C9.615,20.124 8.380,19.952 7.231,19.636 C5.848,20.683 3.662,22.021 1.523,22.021 C2.597,21.007 2.969,19.123 3.079,17.583 C1.169,16.072 -0.009,14.008 -0.009,11.735 C-0.009,7.101 4.878,3.347 10.907,3.347 C16.935,3.347 21.822,7.101 21.822,11.735 Z"/>
</svg>