<svg 
 xmlns="http://www.w3.org/2000/svg"
 xmlns:xlink="http://www.w3.org/1999/xlink"
  viewBox="0 0 15 13">
<path fill-rule="evenodd"  
 d="M14.867,11.579 L8.272,0.453 C8.105,0.172 7.806,-0.000 7.483,-0.000 C7.160,-0.000 6.861,0.172 6.694,0.453 L0.099,11.579 C-0.073,11.869 -0.078,12.229 0.086,12.524 C0.249,12.818 0.556,13.000 0.888,13.000 L14.079,13.000 C14.411,13.000 14.717,12.818 14.881,12.524 C15.044,12.229 15.039,11.869 14.867,11.579 ZM7.488,3.849 C7.867,3.849 8.187,4.066 8.187,4.451 C8.187,5.627 8.051,7.316 8.051,8.492 C8.051,8.798 7.721,8.927 7.488,8.927 C7.177,8.927 6.915,8.798 6.915,8.492 C6.915,7.316 6.779,5.627 6.779,4.451 C6.779,4.066 7.090,3.849 7.488,3.849 ZM7.498,11.130 C7.070,11.130 6.750,10.774 6.750,10.369 C6.750,9.954 7.070,9.608 7.498,9.608 C7.896,9.608 8.236,9.954 8.236,10.369 C8.236,10.774 7.896,11.130 7.498,11.130 Z"/>
</svg>