<svg 
 xmlns="http://www.w3.org/2000/svg"
 xmlns:xlink="http://www.w3.org/1999/xlink"
  viewBox="0 0 13 13">
<path fill-rule="evenodd"  
 d="M0.899,5.273 L0.874,5.278 L8.581,5.278 L5.215,1.978 C5.050,1.817 4.960,1.599 4.960,1.370 C4.960,1.141 5.050,0.924 5.215,0.763 L5.739,0.250 C5.904,0.089 6.123,-0.000 6.357,-0.000 C6.591,-0.000 6.811,0.088 6.976,0.249 L12.745,5.893 C12.911,6.054 13.001,6.270 13.000,6.499 C13.001,6.729 12.911,6.945 12.745,7.107 L6.976,12.750 C6.811,12.911 6.591,13.000 6.357,13.000 C6.123,13.000 5.904,12.911 5.739,12.750 L5.215,12.238 C5.050,12.077 4.960,11.862 4.960,11.633 C4.960,11.404 5.050,11.201 5.215,11.040 L8.619,7.722 L0.887,7.722 C0.405,7.722 -0.000,7.315 -0.000,6.844 L-0.000,6.119 C-0.000,5.647 0.417,5.273 0.899,5.273 Z"/>
</svg>