<svg 
 xmlns="http://www.w3.org/2000/svg"
 xmlns:xlink="http://www.w3.org/1999/xlink"
 viewBox="0 0 14 10">
<path fill-rule="evenodd" 
 d="M9.167,5.079 L14.000,0.875 L14.000,9.185 L9.167,5.079 ZM0.318,0.273 C0.498,0.104 0.740,-0.000 1.007,-0.000 L12.993,-0.000 C13.261,-0.000 13.504,0.103 13.683,0.271 L7.000,6.000 L0.318,0.273 ZM-0.000,9.185 L-0.000,0.878 L4.833,5.079 L-0.000,9.185 ZM7.000,7.000 L8.732,5.484 L13.681,9.728 C13.502,9.896 13.260,10.000 12.993,10.000 L1.007,10.000 C0.739,10.000 0.496,9.896 0.316,9.728 L5.268,5.484 L7.000,7.000 Z"/>
</svg>