<svg 
 xmlns="http://www.w3.org/2000/svg"
 xmlns:xlink="http://www.w3.org/1999/xlink"
 viewBox="0 0 18 17">
<path fill-rule="evenodd" 
 d="M17.760,10.614 L16.463,10.323 C17.452,6.265 14.812,2.192 10.580,1.244 L10.882,0.001 C15.829,1.110 18.914,5.870 17.760,10.614 ZM10.359,2.149 L10.056,3.391 C13.054,4.062 14.924,6.948 14.223,9.822 L15.520,10.111 C16.386,6.553 14.070,2.980 10.359,2.149 ZM9.819,4.366 L9.516,5.610 C11.239,5.994 12.314,7.653 11.910,9.305 L13.207,9.595 C13.776,7.258 12.256,4.911 9.819,4.366 ZM1.663,8.582 C2.226,9.630 2.825,10.658 3.455,11.669 L3.450,11.672 C3.468,11.699 3.487,11.724 3.505,11.751 C3.522,11.779 3.538,11.807 3.554,11.833 L3.560,11.830 C4.226,12.819 4.922,13.790 5.653,14.738 C7.563,17.218 10.826,17.677 12.633,15.977 C12.713,15.905 12.809,15.847 12.873,15.761 C13.252,15.253 13.429,14.622 13.719,14.061 C14.087,13.341 10.804,11.047 10.257,11.921 C10.056,12.247 9.613,13.316 9.312,13.556 C9.043,13.771 8.571,13.535 8.318,13.207 C7.651,12.343 6.967,11.139 6.348,10.169 L6.349,10.169 C6.332,10.143 6.314,10.115 6.297,10.089 C6.279,10.062 6.261,10.033 6.245,10.008 L6.243,10.009 C5.610,9.046 4.787,7.925 4.275,6.969 C4.080,6.606 4.068,6.095 4.389,5.960 C4.747,5.807 5.943,5.900 6.336,5.871 C7.395,5.789 6.704,1.949 5.869,1.947 C5.216,1.948 4.547,1.820 3.905,1.922 C3.795,1.938 3.699,1.996 3.596,2.032 C1.207,2.832 0.191,5.841 1.663,8.582 Z"/>
</svg>