<svg 
 xmlns="http://www.w3.org/2000/svg"
 xmlns:xlink="http://www.w3.org/1999/xlink"
 viewBox="0 0 29 28">
<path fill-rule="evenodd" 
 d="M28.485,16.439 C27.975,17.277 26.335,17.477 25.454,17.551 C24.604,17.562 23.750,17.557 22.902,17.526 L20.799,13.069 L20.798,12.957 L20.764,13.002 L20.506,12.442 C22.263,11.396 24.021,10.354 25.780,9.310 C26.928,11.039 27.979,12.945 28.668,15.490 C28.720,15.648 28.741,15.817 28.741,15.981 L28.534,16.354 C28.517,16.381 28.504,16.412 28.485,16.439 ZM14.040,8.577 L16.862,6.961 C16.166,5.347 15.363,3.834 14.509,2.377 C13.550,0.958 12.558,-0.002 11.493,0.038 C14.183,0.024 16.871,0.012 19.561,-0.000 C21.059,0.668 22.048,1.973 22.823,3.542 L25.673,1.909 L22.227,9.358 L14.040,8.577 ZM14.054,2.660 C14.423,3.288 14.777,3.924 15.115,4.564 L11.477,9.640 C9.701,8.626 7.925,7.612 6.151,6.597 C7.099,4.753 8.256,2.907 10.146,1.060 C10.380,0.811 10.687,0.649 11.064,0.574 L11.467,0.574 L11.750,0.586 C12.682,0.740 13.586,1.966 14.054,2.660 ZM8.096,10.185 L12.165,17.302 L9.210,15.932 C8.289,17.432 7.510,18.955 6.803,20.487 C6.190,22.085 5.970,23.445 6.615,24.289 C5.055,22.108 3.498,19.925 1.940,17.739 C1.630,16.136 2.131,14.583 2.974,13.045 L-0.006,11.666 L8.096,10.185 ZM8.346,18.549 L14.278,18.590 C14.468,20.618 14.657,22.649 14.845,24.679 C12.783,24.965 10.604,25.090 7.999,24.609 C7.754,24.574 7.522,24.488 7.307,24.337 L7.053,23.981 C7.032,23.953 7.013,23.926 6.995,23.899 C6.454,23.078 6.979,21.522 7.297,20.696 C7.631,19.969 7.979,19.254 8.346,18.549 ZM20.311,17.880 C22.066,18.063 23.781,18.110 25.478,18.083 C27.187,17.945 28.516,17.557 29.006,16.614 C27.698,18.953 26.393,21.294 25.086,23.636 C23.763,24.604 22.137,24.825 20.386,24.729 L20.418,28.000 L15.585,21.357 L20.278,14.636 L20.311,17.880 Z"/>
</svg>