<svg 
 xmlns="http://www.w3.org/2000/svg"
 xmlns:xlink="http://www.w3.org/1999/xlink"
 viewBox="0 0 36 21">
<path fill-rule="evenodd" 
 d="M34.798,13.961 L30.725,14.617 C30.454,14.660 30.139,14.436 29.960,14.190 C29.251,12.380 25.350,5.447 24.320,4.238 C24.163,4.126 24.120,3.858 24.098,3.724 C24.213,3.568 24.327,3.412 24.441,3.257 C24.577,3.235 27.348,1.415 32.642,0.563 C33.049,0.497 33.364,0.721 33.429,1.123 L35.369,13.182 C35.434,13.584 35.205,13.896 34.798,13.961 ZM28.159,13.380 C27.015,12.327 24.855,11.025 22.718,9.857 C21.323,8.982 19.951,8.241 19.164,7.680 C19.028,7.701 18.735,7.611 18.599,7.633 C18.464,7.655 18.464,7.655 18.328,7.677 C17.942,7.876 17.692,8.054 17.442,8.232 C17.057,8.431 16.942,8.587 16.535,8.652 C16.264,8.696 16.149,8.852 16.035,9.008 C15.322,10.635 14.350,10.653 13.629,10.495 C13.335,10.405 13.335,10.405 13.314,10.271 C13.092,9.756 13.555,8.307 14.354,7.216 C16.182,4.723 17.181,4.012 19.797,4.691 C20.948,4.918 22.256,5.258 23.678,5.441 C24.551,6.538 26.913,10.831 28.295,13.359 L28.159,13.380 ZM11.885,10.913 C12.107,11.427 12.601,11.897 13.301,11.922 C14.881,12.218 16.152,11.463 17.022,9.949 C17.565,9.861 17.680,9.706 18.065,9.506 C18.044,9.372 18.315,9.328 18.429,9.172 C19.352,9.711 20.567,10.341 21.804,11.104 C24.099,12.384 26.687,13.755 27.424,14.873 C27.782,15.365 27.575,15.811 27.461,15.967 C27.211,16.145 26.961,16.322 26.668,16.232 L22.106,12.980 C21.791,12.755 21.384,12.821 21.156,13.133 C20.927,13.444 20.992,13.846 21.307,14.070 L25.711,17.211 C25.619,17.500 25.369,17.678 25.255,17.834 C24.869,18.033 24.326,18.121 24.168,18.008 L20.236,15.205 C19.921,14.981 19.514,15.046 19.285,15.358 C19.057,15.669 19.122,16.071 19.436,16.296 L23.054,18.875 C22.983,19.299 22.891,19.589 22.505,19.788 C22.234,19.832 21.984,20.010 21.669,19.785 L18.523,17.542 C18.208,17.318 17.801,17.384 17.573,17.695 C17.344,18.007 17.409,18.409 17.723,18.633 L20.240,20.428 C20.105,20.450 19.969,20.471 19.833,20.493 C19.426,20.559 18.568,20.422 18.118,20.219 C17.510,19.905 14.179,18.241 11.254,16.513 C10.804,16.310 10.153,15.728 9.524,15.279 C9.901,13.294 10.291,9.657 10.402,6.890 L13.118,6.453 C12.318,7.544 11.398,9.617 11.885,10.913 ZM7.432,16.990 L3.359,17.646 C2.952,17.711 2.637,17.487 2.572,17.085 L0.632,5.026 C0.611,4.892 0.703,4.602 0.817,4.446 C0.932,4.290 1.067,4.268 1.203,4.247 C2.718,4.140 7.377,3.665 8.635,4.563 C8.928,4.653 8.972,4.921 8.993,5.055 C9.282,8.582 7.981,16.077 8.046,16.479 C7.953,16.769 7.703,16.947 7.432,16.990 Z"/>
</svg>