<svg 
 xmlns="http://www.w3.org/2000/svg"
 xmlns:xlink="http://www.w3.org/1999/xlink"
 viewBox="0 0 15 16">
<path fill-rule="evenodd"
 d="M14.766,14.573 L11.069,10.613 C12.020,9.449 12.540,7.984 12.540,6.460 C12.540,2.898 9.727,0.000 6.269,0.000 C2.812,0.000 -0.001,2.898 -0.001,6.460 C-0.001,10.022 2.812,12.920 6.269,12.920 C7.568,12.920 8.805,12.516 9.862,11.751 L13.587,15.741 C13.743,15.908 13.952,16.000 14.176,16.000 C14.389,16.000 14.590,15.916 14.743,15.765 C15.068,15.442 15.079,14.908 14.766,14.573 ZM6.269,1.685 C8.825,1.685 10.905,3.827 10.905,6.460 C10.905,9.093 8.825,11.235 6.269,11.235 C3.714,11.235 1.634,9.093 1.634,6.460 C1.634,3.827 3.714,1.685 6.269,1.685 Z"/>
</svg>