<svg 
 xmlns="http://www.w3.org/2000/svg"
 xmlns:xlink="http://www.w3.org/1999/xlink"
 viewBox="0 0 27 31">
<path fill-rule="evenodd" 
 d="M26.446,20.750 L25.743,21.189 C25.827,21.700 25.845,22.219 25.798,22.737 L26.545,23.109 C26.923,23.298 27.096,23.743 26.952,24.143 L26.482,25.447 C26.335,25.845 25.914,26.077 25.504,25.981 L24.677,25.790 C24.377,26.221 24.019,26.611 23.617,26.952 L23.898,27.798 C24.032,28.200 23.844,28.642 23.460,28.824 L22.214,29.417 C21.831,29.599 21.376,29.465 21.154,29.104 L20.679,28.331 C20.158,28.421 19.628,28.444 19.100,28.398 L18.686,29.228 C18.496,29.610 18.052,29.787 17.656,29.646 L16.365,29.182 C15.970,29.038 15.743,28.616 15.842,28.203 L16.064,27.263 C15.663,26.974 15.299,26.634 14.979,26.254 L14.086,26.558 C13.686,26.696 13.249,26.510 13.070,26.124 L12.491,24.875 C12.313,24.490 12.450,24.032 12.810,23.806 L13.617,23.300 C13.539,22.824 13.515,22.343 13.548,21.863 L12.712,21.446 C12.334,21.258 12.161,20.812 12.305,20.412 L12.775,19.109 C12.921,18.710 13.342,18.479 13.752,18.574 L14.612,18.773 C14.905,18.342 15.250,17.950 15.640,17.603 L15.362,16.759 C15.228,16.357 15.416,15.915 15.800,15.733 L17.048,15.134 C17.432,14.951 17.886,15.086 18.108,15.447 L18.543,16.157 C19.092,16.046 19.651,16.015 20.209,16.060 L20.575,15.326 C20.765,14.944 21.209,14.767 21.605,14.908 L22.896,15.372 C23.291,15.516 23.518,15.938 23.420,16.351 L23.231,17.152 C23.677,17.464 24.079,17.833 24.423,18.254 L25.178,17.998 C25.578,17.860 26.016,18.046 26.194,18.431 L26.773,19.680 C26.951,20.065 26.812,20.526 26.446,20.750 ZM20.607,19.681 C19.213,19.178 17.663,19.915 17.156,21.324 C16.645,22.731 17.366,24.285 18.761,24.785 C20.154,25.288 21.704,24.551 22.212,23.142 C22.722,21.735 22.002,20.181 20.607,19.681 ZM18.538,7.944 L17.502,8.477 C17.551,9.106 17.523,9.740 17.411,10.365 L18.415,10.978 C18.781,11.201 18.919,11.664 18.740,12.055 L17.903,13.878 C17.723,14.268 17.282,14.465 16.874,14.333 L15.741,13.964 C15.330,14.460 14.855,14.896 14.333,15.270 L14.620,16.485 C14.720,16.904 14.494,17.333 14.092,17.484 L12.225,18.187 C11.824,18.336 11.376,18.163 11.183,17.779 L10.614,16.650 C9.971,16.705 9.324,16.678 8.687,16.567 L8.020,17.669 C7.796,18.039 7.335,18.182 6.948,18.005 L5.143,17.176 C4.757,16.999 4.565,16.556 4.699,16.144 L5.114,14.874 C4.655,14.479 4.247,14.029 3.897,13.532 L2.628,13.848 C2.211,13.952 1.787,13.728 1.639,13.324 L0.956,11.450 C0.811,11.047 0.986,10.595 1.369,10.397 L2.543,9.794 C2.496,9.211 2.517,8.622 2.605,8.041 L1.495,7.365 C1.130,7.141 0.991,6.678 1.170,6.288 L2.007,4.465 C2.187,4.074 2.628,3.877 3.036,4.009 L4.207,4.392 C4.604,3.894 5.064,3.450 5.574,3.071 L5.287,1.864 C5.187,1.444 5.413,1.016 5.816,0.864 L7.683,0.161 C8.084,0.013 8.532,0.185 8.725,0.569 L9.250,1.616 C9.929,1.540 10.613,1.558 11.285,1.671 L11.887,0.679 C12.112,0.309 12.573,0.166 12.960,0.344 L14.764,1.172 C15.151,1.350 15.342,1.793 15.208,2.204 L14.849,3.307 C15.359,3.733 15.807,4.224 16.185,4.771 L17.280,4.497 C17.698,4.393 18.122,4.618 18.269,5.022 L18.951,6.891 C19.096,7.294 18.921,7.746 18.538,7.944 ZM11.406,6.111 C9.762,5.356 7.802,6.094 7.039,7.755 C6.277,9.416 6.995,11.383 8.639,12.138 C10.283,12.893 12.243,12.155 13.005,10.494 C13.768,8.833 13.050,6.866 11.406,6.111 ZM1.864,21.116 L2.418,21.304 C2.687,20.973 2.999,20.684 3.341,20.434 L3.211,19.864 C3.116,19.447 3.346,19.028 3.746,18.882 L4.545,18.591 C4.945,18.446 5.383,18.624 5.570,19.006 L5.804,19.491 C6.256,19.447 6.713,19.464 7.160,19.544 L7.439,19.095 C7.664,18.733 8.122,18.596 8.503,18.778 L9.263,19.138 C9.646,19.317 9.830,19.761 9.693,20.163 L9.521,20.665 C9.857,20.953 10.152,21.284 10.400,21.652 L10.896,21.536 C11.310,21.438 11.725,21.666 11.867,22.067 L12.148,22.865 C12.289,23.267 12.108,23.709 11.728,23.900 L11.249,24.138 C11.276,24.558 11.249,24.982 11.172,25.397 L11.632,25.686 C11.991,25.910 12.123,26.370 11.939,26.755 L11.576,27.523 C11.395,27.910 10.953,28.099 10.554,27.964 L10.028,27.785 C9.750,28.112 9.432,28.399 9.078,28.643 L9.207,29.216 C9.301,29.632 9.072,30.052 8.672,30.197 L7.877,30.487 C7.477,30.632 7.039,30.453 6.852,30.072 L6.588,29.532 C6.156,29.564 5.728,29.541 5.303,29.461 L4.979,29.984 C4.754,30.347 4.296,30.484 3.915,30.302 L3.154,29.942 C2.772,29.762 2.587,29.319 2.725,28.916 L2.933,28.302 C2.631,28.037 2.364,27.734 2.133,27.399 L1.522,27.543 C1.107,27.641 0.692,27.414 0.551,27.012 L0.270,26.214 C0.128,25.813 0.309,25.371 0.690,25.180 L1.260,24.894 C1.230,24.504 1.249,24.113 1.314,23.725 L0.785,23.394 C0.427,23.170 0.294,22.710 0.478,22.325 L0.842,21.556 C1.023,21.170 1.465,20.981 1.864,21.116 ZM5.307,26.505 C6.398,27.020 7.710,26.547 8.230,25.444 C8.752,24.341 8.291,23.025 7.200,22.509 C6.108,21.993 4.797,22.466 4.276,23.569 C3.755,24.672 4.215,25.989 5.307,26.505 Z"/>
</svg>