<svg 
 xmlns="http://www.w3.org/2000/svg"
 xmlns:xlink="http://www.w3.org/1999/xlink"
 viewBox="0 0 19 19">
<path fill-rule="evenodd"
 d="M18.826,18.506 C18.627,18.815 18.290,18.999 17.925,18.999 L1.075,18.999 C0.710,18.999 0.373,18.815 0.174,18.506 C-0.025,18.197 -0.055,17.812 0.093,17.475 L2.242,12.587 C2.341,12.364 2.513,12.178 2.728,12.065 L6.063,10.313 C6.137,10.274 6.226,10.281 6.292,10.332 C7.236,11.052 8.345,11.433 9.500,11.433 C10.655,11.433 11.764,11.052 12.708,10.332 C12.774,10.281 12.863,10.274 12.936,10.313 L16.272,12.065 C16.487,12.178 16.659,12.364 16.758,12.587 L18.907,17.475 C19.055,17.812 19.025,18.197 18.826,18.506 ZM9.500,10.066 C7.147,10.066 5.240,7.813 5.240,5.033 C5.240,1.178 7.147,-0.001 9.500,-0.001 C11.853,-0.001 13.760,1.178 13.760,5.033 C13.760,7.813 11.853,10.066 9.500,10.066 Z"/>
</svg>