<svg 
 xmlns="http://www.w3.org/2000/svg"
 xmlns:xlink="http://www.w3.org/1999/xlink"
 viewBox="0 0 17 14">
<path fill-rule="evenodd" 
 d="M10.259,2.402 C11.045,2.884 11.596,3.700 11.697,4.648 C12.017,4.794 12.373,4.879 12.750,4.879 C14.127,4.879 15.243,3.786 15.243,2.439 C15.243,1.091 14.127,-0.002 12.750,-0.002 C11.386,-0.002 10.280,1.071 10.259,2.402 ZM8.625,7.398 C10.002,7.398 11.119,6.306 11.119,4.958 C11.119,3.610 10.002,2.518 8.625,2.518 C7.249,2.518 6.132,3.610 6.132,4.958 C6.132,6.306 7.249,7.398 8.625,7.398 ZM9.683,7.564 L7.567,7.564 C5.807,7.564 4.375,8.966 4.375,10.689 L4.375,13.222 L4.381,13.261 L4.560,13.316 C6.240,13.830 7.699,14.001 8.900,14.001 C11.247,14.001 12.607,13.346 12.691,13.304 L12.857,13.222 L12.875,13.222 L12.875,10.689 C12.875,8.966 11.443,7.564 9.683,7.564 ZM13.808,5.045 L11.709,5.045 C11.686,5.867 11.328,6.608 10.761,7.140 C12.325,7.595 13.470,9.016 13.470,10.693 L13.470,11.473 C15.543,11.399 16.737,10.824 16.816,10.785 L16.983,10.703 L17.000,10.703 L17.000,8.170 C17.000,6.447 15.568,5.045 13.808,5.045 ZM4.250,4.879 C4.738,4.879 5.192,4.740 5.576,4.502 C5.699,3.722 6.126,3.040 6.736,2.576 C6.739,2.530 6.743,2.485 6.743,2.439 C6.743,1.091 5.627,-0.001 4.250,-0.001 C2.873,-0.001 1.757,1.091 1.757,2.439 C1.757,3.786 2.873,4.879 4.250,4.879 ZM6.490,7.140 C5.925,6.610 5.568,5.874 5.542,5.057 C5.464,5.051 5.387,5.045 5.308,5.045 L3.192,5.045 C1.432,5.045 -0.000,6.447 -0.000,8.170 L-0.000,10.702 L0.006,10.742 L0.185,10.797 C1.532,11.208 2.735,11.398 3.780,11.458 L3.780,10.693 C3.780,9.016 4.924,7.596 6.490,7.140 Z"/>
</svg>