<svg aria-hidden="true" style="position: absolute; width: 0; height: 0; overflow: hidden;" version="1.1" xmlns="http://www.w3.org/2000/svg" xmlns:xlink="http://www.w3.org/1999/xlink">
<defs>
<symbol id="map" viewBox="0 0 32 32">
<title>map</title>
<path d="M16 0c-6.616 0-12 5.198-12 11.588 0 7.93 10.738 19.574 11.196 20.064 0.43 0.464 1.18 0.462 1.608 0 0.458-0.49 11.196-12.134 11.196-20.064 0-6.39-5.384-11.588-12-11.588zM16 17.42c-3.33 0-6.038-2.616-6.038-5.832 0-3.214 2.708-5.83 6.038-5.83s6.038 2.616 6.038 5.83c0 3.216-2.708 5.832-6.038 5.832z"></path>
</symbol>
<symbol id="reload" viewBox="0 0 32 32">
<title>reload</title>
<path d="M31.432 18.691c-0.563 0.925-2.372 1.145-3.345 1.227-0.938 0.012-1.88 0.007-2.816-0.028l-2.321-4.918-0.001-0.124-0.038 0.050-0.285-0.618c1.939-1.154 3.879-2.304 5.82-3.456 1.267 1.908 2.426 4.011 3.187 6.819 0.057 0.174 0.081 0.361 0.081 0.542l-0.228 0.412c-0.019 0.030-0.033 0.064-0.054 0.094zM15.492 10.016l3.114-1.783c-0.768-1.781-1.654-3.45-2.596-5.058-1.058-1.566-2.153-2.625-3.328-2.581 2.968-0.015 5.934-0.029 8.903-0.042 1.653 0.737 2.744 2.177 3.599 3.908l3.145-1.802-3.802 8.22-9.034-0.862zM15.508 3.487c0.407 0.693 0.798 1.395 1.171 2.101l-4.014 5.601c-1.96-1.119-3.919-2.238-5.877-3.358 1.046-2.035 2.323-4.072 4.408-6.11 0.258-0.275 0.597-0.454 1.013-0.536h0.445l0.312 0.013c1.028 0.17 2.026 1.523 2.542 2.289zM8.934 11.79l4.49 7.853-3.261-1.512c-1.016 1.655-1.876 3.336-2.656 5.026-0.676 1.763-0.919 3.264-0.207 4.195-1.721-2.407-3.439-4.815-5.159-7.228-0.342-1.769 0.211-3.482 1.141-5.18l-3.288-1.522 8.94-1.634zM9.209 21.020l6.546 0.045c0.21 2.238 0.418 4.479 0.626 6.719-2.275 0.316-4.68 0.454-7.554-0.077-0.27-0.039-0.526-0.134-0.764-0.3l-0.28-0.393c-0.023-0.031-0.044-0.061-0.064-0.090-0.597-0.906-0.018-2.623 0.333-3.534 0.369-0.802 0.753-1.591 1.158-2.369zM22.412 20.281c1.937 0.202 3.829 0.254 5.702 0.224 1.886-0.152 3.352-0.58 3.893-1.621-1.443 2.581-2.883 5.164-4.326 7.748-1.46 1.068-3.254 1.312-5.186 1.206l0.035 3.609-5.333-7.33 5.178-7.416 0.036 3.58z"></path>
</symbol>
<symbol id="ruka" viewBox="0 0 32 32">
<title>ruka</title>
<path d="M30.932 19.076l-3.62 0.583c-0.241 0.038-0.521-0.161-0.68-0.38-0.63-1.609-4.098-7.772-5.013-8.846-0.14-0.1-0.178-0.338-0.197-0.457 0.102-0.139 0.204-0.277 0.305-0.415 0.121-0.020 2.584-1.637 7.29-2.395 0.362-0.059 0.642 0.14 0.7 0.498l1.724 10.719c0.058 0.357-0.146 0.635-0.508 0.692zM25.030 18.56c-1.017-0.936-2.937-2.093-4.836-3.132-1.24-0.778-2.46-1.436-3.159-1.935-0.121 0.019-0.381-0.061-0.502-0.042s-0.12 0.020-0.241 0.039c-0.343 0.177-0.565 0.335-0.788 0.493-0.342 0.177-0.444 0.316-0.806 0.373-0.241 0.039-0.343 0.178-0.444 0.316-0.634 1.446-1.498 1.462-2.139 1.322-0.261-0.080-0.261-0.080-0.28-0.199-0.197-0.458 0.214-1.746 0.924-2.716 1.625-2.216 2.513-2.848 4.838-2.244 1.023 0.202 2.186 0.504 3.45 0.667 0.776 0.975 2.876 4.791 4.104 7.038l-0.121 0.019zM10.564 16.367c0.197 0.457 0.636 0.875 1.259 0.897 1.404 0.263 2.534-0.408 3.308-1.754 0.483-0.078 0.585-0.216 0.927-0.394-0.019-0.119 0.222-0.158 0.324-0.297 0.82 0.479 1.9 1.039 3 1.717 2.040 1.138 4.34 2.356 4.996 3.35 0.318 0.437 0.134 0.834 0.033 0.972-0.222 0.158-0.444 0.316-0.705 0.236l-4.055-2.891c-0.28-0.2-0.642-0.141-0.844 0.136s-0.146 0.634 0.134 0.833l3.915 2.792c-0.082 0.257-0.304 0.415-0.405 0.554-0.343 0.177-0.826 0.255-0.966 0.155l-3.495-2.492c-0.28-0.199-0.642-0.141-0.845 0.136s-0.145 0.634 0.134 0.834l3.216 2.292c-0.063 0.377-0.145 0.635-0.488 0.812-0.241 0.039-0.463 0.197-0.743-0.003l-2.796-1.994c-0.28-0.199-0.642-0.14-0.844 0.136s-0.146 0.635 0.133 0.834l2.237 1.596c-0.12 0.020-0.241 0.038-0.362 0.058-0.362 0.059-1.124-0.063-1.524-0.244-0.54-0.279-3.501-1.758-6.101-3.294-0.4-0.18-0.979-0.698-1.538-1.097 0.335-1.764 0.682-4.997 0.78-7.457l2.414-0.388c-0.711 0.97-1.529 2.812-1.096 3.964zM6.606 21.769l-3.62 0.583c-0.362 0.058-0.642-0.141-0.7-0.499l-1.724-10.719c-0.019-0.119 0.063-0.377 0.164-0.516s0.222-0.158 0.343-0.177c1.347-0.095 5.488-0.517 6.606 0.281 0.26 0.080 0.3 0.318 0.318 0.437 0.257 3.135-0.9 9.797-0.842 10.155-0.083 0.258-0.305 0.416-0.546 0.454z"></path>
</symbol>
<symbol id="setting" viewBox="0 0 32 32">
<title>setting</title>
<path d="M29.364 21.419l-0.726 0.453c0.087 0.527 0.105 1.063 0.057 1.598l0.771 0.384c0.39 0.195 0.569 0.654 0.42 1.067l-0.485 1.346c-0.152 0.411-0.586 0.65-1.010 0.551l-0.854-0.197c-0.31 0.445-0.679 0.847-1.094 1.199l0.29 0.873c0.138 0.415-0.056 0.871-0.452 1.059l-1.286 0.612c-0.395 0.188-0.865 0.050-1.094-0.323l-0.49-0.798c-0.538 0.093-1.085 0.117-1.63 0.069l-0.427 0.857c-0.196 0.394-0.654 0.577-1.063 0.431l-1.333-0.479c-0.408-0.149-0.642-0.584-0.54-1.011l0.229-0.97c-0.414-0.298-0.79-0.649-1.12-1.042l-0.922 0.314c-0.413 0.142-0.864-0.050-1.049-0.448l-0.598-1.289c-0.184-0.397-0.042-0.87 0.329-1.103l0.833-0.522c-0.081-0.491-0.105-0.988-0.071-1.483l-0.863-0.43c-0.39-0.194-0.569-0.654-0.42-1.067l0.485-1.345c0.151-0.412 0.585-0.65 1.009-0.552l0.888 0.205c0.302-0.445 0.659-0.85 1.061-1.208l-0.287-0.871c-0.138-0.415 0.056-0.871 0.452-1.059l1.288-0.618c0.396-0.189 0.865-0.050 1.094 0.323l0.449 0.733c0.567-0.115 1.144-0.147 1.72-0.1l0.378-0.758c0.196-0.394 0.654-0.577 1.063-0.431l1.333 0.479c0.408 0.149 0.642 0.584 0.541 1.011l-0.195 0.827c0.46 0.322 0.875 0.703 1.23 1.138l0.779-0.264c0.413-0.142 0.865 0.050 1.049 0.447l0.598 1.289c0.184 0.397 0.040 0.873-0.338 1.105zM23.336 20.316c-1.439-0.519-3.039 0.242-3.562 1.696-0.527 1.452 0.217 3.057 1.657 3.573 1.438 0.519 3.038-0.242 3.562-1.696 0.526-1.452-0.217-3.057-1.657-3.573zM21.201 8.2l-1.069 0.55c0.051 0.649 0.022 1.304-0.094 1.949l1.036 0.633c0.378 0.23 0.52 0.708 0.335 1.112l-0.864 1.882c-0.186 0.403-0.641 0.606-1.062 0.47l-1.17-0.381c-0.424 0.512-0.915 0.962-1.453 1.348l0.296 1.254c0.103 0.433-0.13 0.875-0.545 1.031l-1.927 0.726c-0.414 0.154-0.876-0.025-1.076-0.421l-0.587-1.165c-0.664 0.057-1.332 0.029-1.989-0.086l-0.689 1.138c-0.231 0.382-0.707 0.53-1.107 0.347l-1.863-0.856c-0.398-0.183-0.597-0.64-0.458-1.065l0.428-1.311c-0.474-0.408-0.895-0.872-1.256-1.385l-1.31 0.326c-0.43 0.107-0.868-0.124-1.021-0.541l-0.705-1.934c-0.15-0.416 0.031-0.883 0.426-1.087l1.212-0.622c-0.049-0.602-0.027-1.21 0.064-1.81l-1.146-0.698c-0.377-0.231-0.52-0.709-0.335-1.112l0.864-1.882c0.186-0.404 0.641-0.607 1.062-0.471l1.209 0.395c0.41-0.514 0.885-0.972 1.411-1.364l-0.296-1.246c-0.103-0.434 0.13-0.875 0.546-1.032l1.927-0.726c0.414-0.153 0.876 0.025 1.076 0.421l0.542 1.081c0.701-0.078 1.407-0.060 2.101 0.057l0.621-1.024c0.232-0.382 0.708-0.53 1.108-0.346l1.862 0.855c0.399 0.184 0.597 0.641 0.458 1.065l-0.371 1.139c0.526 0.44 0.989 0.947 1.379 1.511l1.13-0.283c0.431-0.107 0.869 0.125 1.021 0.542l0.704 1.929c0.15 0.416-0.031 0.883-0.426 1.087zM13.838 6.308c-1.697-0.779-3.72-0.018-4.508 1.697-0.787 1.715-0.045 3.745 1.652 4.524s3.72 0.018 4.507-1.697c0.788-1.715 0.046-3.745-1.651-4.524zM3.989 21.797l0.572 0.194c0.278-0.342 0.6-0.64 0.953-0.898l-0.134-0.588c-0.098-0.43 0.139-0.863 0.552-1.014l0.825-0.3c0.413-0.15 0.865 0.034 1.058 0.428l0.242 0.501c0.467-0.045 0.938-0.028 1.4 0.055l0.288-0.463c0.232-0.374 0.705-0.515 1.098-0.327l0.785 0.372c0.395 0.185 0.585 0.643 0.444 1.058l-0.178 0.518c0.347 0.297 0.651 0.639 0.907 1.019l0.512-0.12c0.427-0.101 0.856 0.134 1.002 0.548l0.29 0.824c0.146 0.415-0.041 0.871-0.434 1.068l-0.494 0.246c0.028 0.434 0 0.871-0.079 1.3l0.475 0.298c0.371 0.231 0.507 0.706 0.317 1.103l-0.375 0.793c-0.187 0.399-0.643 0.595-1.055 0.455l-0.543-0.185c-0.287 0.338-0.615 0.634-0.981 0.886l0.133 0.591c0.097 0.429-0.139 0.863-0.552 1.013l-0.821 0.299c-0.413 0.15-0.865-0.035-1.058-0.428l-0.273-0.557c-0.446 0.033-0.888 0.009-1.326-0.073l-0.334 0.54c-0.232 0.375-0.705 0.516-1.098 0.328l-0.786-0.372c-0.394-0.186-0.585-0.643-0.443-1.059l0.215-0.634c-0.312-0.274-0.587-0.586-0.826-0.932l-0.631 0.149c-0.428 0.101-0.857-0.133-1.002-0.548l-0.29-0.824c-0.147-0.414 0.040-0.87 0.434-1.067l0.588-0.295c-0.031-0.403-0.011-0.806 0.056-1.207l-0.546-0.342c-0.37-0.231-0.507-0.706-0.317-1.103l0.376-0.794c0.187-0.398 0.643-0.594 1.055-0.454zM7.543 27.36c1.126 0.532 2.481 0.043 3.017-1.095 0.539-1.139 0.063-2.497-1.063-3.030-1.127-0.533-2.481-0.044-3.018 1.094s-0.063 2.498 1.064 3.031z"></path>
</symbol>
<symbol id="user" viewBox="0 0 32 32">
<title>user</title>
<path d="M31.707 31.168c-0.335 0.52-0.903 0.83-1.517 0.83h-28.379c-0.615 0-1.182-0.31-1.517-0.83s-0.386-1.169-0.136-1.736l3.619-8.232c0.167-0.376 0.456-0.689 0.819-0.879l5.617-2.951c0.125-0.066 0.275-0.054 0.386 0.032 1.59 1.213 3.458 1.854 5.403 1.854s3.813-0.642 5.403-1.854c0.111-0.086 0.261-0.098 0.384-0.032l5.619 2.951c0.362 0.19 0.652 0.504 0.819 0.879l3.619 8.232c0.249 0.568 0.199 1.216-0.136 1.736zM16 16.953c-3.963 0-7.175-3.795-7.175-8.477 0-6.493 3.212-8.478 7.175-8.478s7.175 1.986 7.175 8.478c0 4.682-3.212 8.477-7.175 8.477z"></path>
</symbol>
<symbol id="users" viewBox="0 0 32 32">
<title>users</title>
<path d="M19.311 7.345c1.48 0.907 2.517 2.443 2.707 4.228 0.602 0.275 1.272 0.435 1.982 0.435 2.592 0 4.693-2.057 4.693-4.593 0-2.537-2.101-4.595-4.693-4.595-2.568 0-4.649 2.020-4.689 4.525zM16.235 16.749c2.592 0 4.695-2.056 4.695-4.593s-2.103-4.593-4.695-4.593c-2.59 0-4.693 2.056-4.693 4.593s2.103 4.593 4.693 4.593zM18.227 17.062h-3.983c-3.313 0-6.008 2.639-6.008 5.882v4.768l0.011 0.073 0.337 0.104c3.162 0.968 5.909 1.289 8.169 1.289 4.418 0 6.978-1.233 7.136-1.312l0.312-0.154h0.034v-4.768c0-3.243-2.696-5.882-6.008-5.882zM25.992 12.32h-3.951c-0.043 1.547-0.717 2.942-1.784 3.944 2.944 0.856 5.099 3.531 5.099 6.688v1.468c3.902-0.139 6.15-1.222 6.298-1.295l0.314-0.154h0.032v-4.768c0-3.243-2.696-5.882-6.008-5.882zM8 12.008c0.919 0 1.773-0.262 2.496-0.71 0.232-1.468 1.035-2.752 2.184-3.625 0.006-0.087 0.013-0.171 0.013-0.258 0-2.537-2.101-4.593-4.693-4.593s-4.693 2.056-4.693 4.593c0 2.536 2.101 4.593 4.693 4.593zM12.216 16.264c-1.064-0.998-1.736-2.383-1.784-3.921-0.147-0.011-0.292-0.023-0.44-0.023h-3.983c-3.313 0-6.008 2.639-6.008 5.882v4.766l0.011 0.075 0.337 0.104c2.536 0.774 4.8 1.131 6.767 1.244v-1.44c0-3.157 2.153-5.83 5.101-6.688z"></path>
</symbol>
<symbol id="calendar" viewBox="0 0 32 32">
<title>calendar</title>
<path d="M29.067 32h-26.135c-1.621 0-2.933-1.301-2.933-2.885v-22.686c0-1.557 1.285-2.821 2.848-2.866v3.87c0 1.751 1.451 3.159 3.241 3.159h2.043c1.79 0 3.259-1.408 3.259-3.159v-3.883h9.214v3.883c0 1.751 1.472 3.159 3.262 3.159h2.043c1.79 0 3.241-1.408 3.241-3.159v-3.87c1.563 0.046 2.848 1.31 2.848 2.866v22.686c0 1.579-1.317 2.885-2.933 2.885zM28.201 15.984c0-0.686-0.567-1.241-1.266-1.241h-21.925c-0.702 0-1.269 0.555-1.269 1.241v11.719c0 0.683 0.567 1.239 1.269 1.239h21.925c0.699 0 1.266-0.555 1.266-1.239v-11.719zM23.774 27.248h-2.592c-0.409 0-0.743-0.325-0.743-0.725v-2.535c0-0.4 0.334-0.725 0.743-0.725h2.592c0.411 0 0.743 0.325 0.743 0.725v2.535c0 0.4-0.331 0.725-0.743 0.725zM23.774 20.914h-2.592c-0.409 0-0.743-0.325-0.743-0.727v-2.533c0-0.402 0.334-0.727 0.743-0.727h2.592c0.411 0 0.743 0.325 0.743 0.727v2.533c0 0.402-0.331 0.727-0.743 0.727zM17.296 27.248h-2.592c-0.409 0-0.743-0.325-0.743-0.725v-2.535c0-0.4 0.334-0.725 0.743-0.725h2.592c0.409 0 0.743 0.325 0.743 0.725v2.535c0 0.4-0.334 0.725-0.743 0.725zM17.296 20.914h-2.592c-0.409 0-0.743-0.325-0.743-0.727v-2.533c0-0.402 0.334-0.727 0.743-0.727h2.592c0.409 0 0.743 0.325 0.743 0.727v2.533c0 0.402-0.334 0.727-0.743 0.727zM10.818 27.248h-2.592c-0.411 0-0.743-0.325-0.743-0.725v-2.535c0-0.4 0.331-0.725 0.743-0.725h2.592c0.409 0 0.743 0.325 0.743 0.725v2.535c0 0.4-0.334 0.725-0.743 0.725zM10.818 20.914h-2.592c-0.411 0-0.743-0.325-0.743-0.727v-2.533c0-0.402 0.331-0.727 0.743-0.727h2.592c0.409 0 0.743 0.325 0.743 0.727v2.533c0 0.402-0.334 0.727-0.743 0.727zM25.863 8.519h-2.023c-0.613 0-1.111-0.487-1.111-1.086v-6.347c0-0.599 0.498-1.086 1.111-1.086h2.023c0.613 0 1.111 0.487 1.111 1.086v6.347c0 0.599-0.498 1.086-1.111 1.086zM8.103 8.519h-2.021c-0.615 0-1.113-0.487-1.113-1.086v-6.347c0-0.599 0.498-1.086 1.113-1.086h2.021c0.615 0 1.111 0.487 1.111 1.086v6.347c0 0.599-0.496 1.086-1.111 1.086z"></path>
</symbol>
<symbol id="close" viewBox="0 0 32 32">
<title>close</title>
<path d="M19.803 16l11.409-11.409c1.050-1.050 1.050-2.753 0-3.803s-2.753-1.050-3.803 0l-11.409 11.409-11.409-11.409c-1.050-1.050-2.753-1.050-3.803 0s-1.050 2.753 0 3.803l11.409 11.409-11.409 11.409c-1.050 1.050-1.050 2.753 0 3.803s2.753 1.050 3.803 0l11.409-11.409 11.409 11.409c1.050 1.050 2.753 1.050 3.803 0s1.050-2.753 0-3.803l-11.409-11.409z"></path>
</symbol>
<symbol id="comments" viewBox="0 0 32 32">
<title>comments</title>
<path d="M32.009 24.493c-2.536 0-5.132-1.591-6.766-2.831 1.644-1.792 2.611-3.999 2.611-6.376 0-6.040-6.238-10.937-13.932-10.937-1.135 0-2.238 0.108-3.292 0.306 2.241-1.431 5.122-2.293 8.268-2.293 7.144 0 12.936 4.449 12.936 9.941 0 1.801-0.623 3.492-1.713 4.946-0.046 1.746 0.082 5.534 1.888 7.245zM25.863 16.279c0 5.493-5.792 9.943-12.936 9.943-1.531 0-2.995-0.204-4.357-0.578-1.639 1.241-4.23 2.827-6.765 2.827 1.273-1.202 1.714-3.435 1.844-5.26-2.264-1.791-3.66-4.237-3.66-6.931 0-5.492 5.792-9.941 12.937-9.941 7.144 0 12.936 4.449 12.936 9.941z"></path>
</symbol>
<symbol id="danger" viewBox="0 0 32 32">
<title>danger</title>
<path d="M31.716 26.835l-14.069-23.735c-0.356-0.599-0.994-0.966-1.683-0.966s-1.327 0.367-1.683 0.966l-14.069 23.735c-0.367 0.619-0.378 1.387-0.028 2.016 0.348 0.627 1.003 1.015 1.711 1.015h28.141c0.708 0 1.361-0.388 1.711-1.015 0.348-0.629 0.337-1.397-0.030-2.016zM15.974 10.345c0.809 0 1.491 0.463 1.491 1.284 0 2.509-0.29 6.112-0.29 8.621 0 0.653-0.704 0.928-1.201 0.928-0.663 0-1.222-0.275-1.222-0.928 0-2.509-0.29-6.112-0.29-8.621 0-0.821 0.663-1.284 1.513-1.284zM15.996 25.877c-0.913 0-1.596-0.759-1.596-1.623 0-0.885 0.683-1.623 1.596-1.623 0.849 0 1.574 0.738 1.574 1.623 0 0.864-0.725 1.623-1.574 1.623z"></path>
</symbol>
<symbol id="direction" viewBox="0 0 32 32">
<title>direction</title>
<path d="M2.213 12.98l-0.062 0.012h18.971l-8.286-8.123c-0.406-0.396-0.628-0.933-0.628-1.497s0.222-1.098 0.628-1.494l1.29-1.263c0.406-0.396 0.945-0.615 1.521-0.615s1.118 0.217 1.524 0.613l14.201 13.893c0.409 0.396 0.63 0.928 0.628 1.492 0.002 0.566-0.219 1.098-0.628 1.497l-14.201 13.89c-0.406 0.396-0.948 0.615-1.524 0.615s-1.115-0.219-1.521-0.615l-1.29-1.26c-0.406-0.396-0.628-0.926-0.628-1.489s0.222-1.063 0.628-1.46l8.379-8.167h-19.033c-1.186 0-2.183-1.002-2.183-2.161v-1.785c0-1.162 1.026-2.082 2.213-2.082z"></path>
</symbol>
<symbol id="favorits" viewBox="0 0 32 32">
<title>favorits</title>
<path d="M32 10.728c0-4.82-3.869-8.728-8.641-8.728-3.117 0-5.839 1.672-7.359 4.171-1.52-2.499-4.244-4.171-7.36-4.171-4.772 0-8.64 3.908-8.64 8.728 0 2.625 1.151 4.973 2.965 6.572l12.245 12.371c0.209 0.211 0.493 0.329 0.789 0.329s0.579-0.119 0.788-0.329l12.245-12.371c1.815-1.599 2.967-3.947 2.967-6.572z"></path>
</symbol>
</defs>
</svg>
