<svg aria-hidden="true" style="position: absolute; width: 0; height: 0; overflow: hidden;" version="1.1" xmlns="http://www.w3.org/2000/svg" xmlns:xlink="http://www.w3.org/1999/xlink">
<defs>
<symbol id="calendar" viewBox="0 0 32 32">
<title>calendar</title>
<path d="M29.067 32h-26.135c-1.621 0-2.933-1.301-2.933-2.885v-22.686c0-1.557 1.285-2.821 2.848-2.866v3.87c0 1.751 1.451 3.159 3.241 3.159h2.043c1.79 0 3.259-1.408 3.259-3.159v-3.883h9.214v3.883c0 1.751 1.472 3.159 3.262 3.159h2.043c1.79 0 3.241-1.408 3.241-3.159v-3.87c1.563 0.046 2.848 1.31 2.848 2.866v22.686c0 1.579-1.317 2.885-2.933 2.885zM28.201 15.984c0-0.686-0.567-1.241-1.266-1.241h-21.925c-0.702 0-1.269 0.555-1.269 1.241v11.719c0 0.683 0.567 1.239 1.269 1.239h21.925c0.699 0 1.266-0.555 1.266-1.239v-11.719zM23.774 27.248h-2.592c-0.409 0-0.743-0.325-0.743-0.725v-2.535c0-0.4 0.334-0.725 0.743-0.725h2.592c0.411 0 0.743 0.325 0.743 0.725v2.535c0 0.4-0.331 0.725-0.743 0.725zM23.774 20.914h-2.592c-0.409 0-0.743-0.325-0.743-0.727v-2.533c0-0.402 0.334-0.727 0.743-0.727h2.592c0.411 0 0.743 0.325 0.743 0.727v2.533c0 0.402-0.331 0.727-0.743 0.727zM17.296 27.248h-2.592c-0.409 0-0.743-0.325-0.743-0.725v-2.535c0-0.4 0.334-0.725 0.743-0.725h2.592c0.409 0 0.743 0.325 0.743 0.725v2.535c0 0.4-0.334 0.725-0.743 0.725zM17.296 20.914h-2.592c-0.409 0-0.743-0.325-0.743-0.727v-2.533c0-0.402 0.334-0.727 0.743-0.727h2.592c0.409 0 0.743 0.325 0.743 0.727v2.533c0 0.402-0.334 0.727-0.743 0.727zM10.818 27.248h-2.592c-0.411 0-0.743-0.325-0.743-0.725v-2.535c0-0.4 0.331-0.725 0.743-0.725h2.592c0.409 0 0.743 0.325 0.743 0.725v2.535c0 0.4-0.334 0.725-0.743 0.725zM10.818 20.914h-2.592c-0.411 0-0.743-0.325-0.743-0.727v-2.533c0-0.402 0.331-0.727 0.743-0.727h2.592c0.409 0 0.743 0.325 0.743 0.727v2.533c0 0.402-0.334 0.727-0.743 0.727zM25.863 8.519h-2.023c-0.613 0-1.111-0.487-1.111-1.086v-6.347c0-0.599 0.498-1.086 1.111-1.086h2.023c0.613 0 1.111 0.487 1.111 1.086v6.347c0 0.599-0.498 1.086-1.111 1.086zM8.103 8.519h-2.021c-0.615 0-1.113-0.487-1.113-1.086v-6.347c0-0.599 0.498-1.086 1.113-1.086h2.021c0.615 0 1.111 0.487 1.111 1.086v6.347c0 0.599-0.496 1.086-1.111 1.086z"></path>
</symbol>
<symbol id="close" viewBox="0 0 32 32">
<title>close</title>
<path d="M19.803 16l11.409-11.409c1.050-1.050 1.050-2.753 0-3.803s-2.753-1.050-3.803 0l-11.409 11.409-11.409-11.409c-1.050-1.050-2.753-1.050-3.803 0s-1.050 2.753 0 3.803l11.409 11.409-11.409 11.409c-1.050 1.050-1.050 2.753 0 3.803s2.753 1.050 3.803 0l11.409-11.409 11.409 11.409c1.050 1.050 2.753 1.050 3.803 0s1.050-2.753 0-3.803l-11.409-11.409z"></path>
</symbol>
<symbol id="comments" viewBox="0 0 38 32">
<title>comments</title>
<path d="M37.576 25.97c-2.977 0-6.024-1.867-7.943-3.324 1.93-2.104 3.065-4.694 3.065-7.485 0-7.090-7.322-12.839-16.355-12.839-1.333 0-2.627 0.127-3.865 0.359 2.631-1.679 6.013-2.692 9.706-2.692 8.387 0 15.186 5.223 15.186 11.67 0 2.115-0.732 4.099-2.010 5.806-0.054 2.049 0.096 6.496 2.216 8.505zM30.361 16.327c0 6.449-6.799 11.672-15.186 11.672-1.798 0-3.516-0.239-5.114-0.679-1.924 1.457-4.966 3.318-7.942 3.318 1.494-1.411 2.012-4.032 2.165-6.175-2.657-2.102-4.296-4.974-4.296-8.136 0-6.447 6.799-11.67 15.187-11.67 8.387 0 15.186 5.223 15.186 11.67z"></path>
</symbol>
<symbol id="danger" viewBox="0 0 37 32">
<title>danger</title>
<path d="M36.596 28.502l-16.234-27.387c-0.411-0.692-1.147-1.115-1.942-1.115s-1.531 0.423-1.942 1.115l-16.234 27.387c-0.423 0.714-0.436 1.6-0.032 2.326 0.401 0.724 1.157 1.172 1.974 1.172h32.47c0.817 0 1.57-0.448 1.974-1.172 0.401-0.726 0.389-1.612-0.034-2.326zM18.432 9.474c0.933 0 1.721 0.534 1.721 1.482 0 2.895-0.335 7.052-0.335 9.947 0 0.753-0.812 1.071-1.386 1.071-0.766 0-1.41-0.318-1.41-1.071 0-2.895-0.335-7.052-0.335-9.947 0-0.948 0.766-1.482 1.745-1.482zM18.457 27.397c-1.054 0-1.841-0.876-1.841-1.873 0-1.022 0.788-1.873 1.841-1.873 0.98 0 1.817 0.852 1.817 1.873 0 0.997-0.837 1.873-1.817 1.873z"></path>
</symbol>
<symbol id="direction" viewBox="0 0 32 32">
<title>direction</title>
<path d="M2.213 12.98l-0.062 0.012h18.971l-8.286-8.123c-0.406-0.396-0.628-0.933-0.628-1.497s0.222-1.098 0.628-1.494l1.29-1.263c0.406-0.396 0.945-0.615 1.521-0.615s1.118 0.217 1.524 0.613l14.201 13.893c0.409 0.396 0.63 0.928 0.628 1.492 0.002 0.566-0.219 1.098-0.628 1.497l-14.201 13.89c-0.406 0.396-0.948 0.615-1.524 0.615s-1.115-0.219-1.521-0.615l-1.29-1.26c-0.406-0.396-0.628-0.926-0.628-1.489s0.222-1.063 0.628-1.46l8.379-8.167h-19.033c-1.186 0-2.183-1.002-2.183-2.161v-1.785c0-1.162 1.026-2.082 2.213-2.082z"></path>
</symbol>
<symbol id="favorits" viewBox="0 0 37 32">
<title>favorits</title>
<path d="M36.571 9.975c0-5.509-4.422-9.975-9.876-9.975-3.563 0-6.673 1.911-8.41 4.766-1.737-2.856-4.85-4.766-8.411-4.766-5.454 0-9.874 4.466-9.874 9.975 0 3 1.315 5.684 3.389 7.511l13.995 14.138c0.239 0.241 0.564 0.376 0.902 0.376s0.661-0.136 0.901-0.376l13.995-14.138c2.074-1.827 3.39-4.51 3.39-7.511z"></path>
</symbol>
<symbol id="mail" viewBox="0 0 45 32">
<title>mail</title>
<path d="M29.334 16.253l15.466-13.453v26.592l-15.466-13.139zM1.018 0.874c0.576-0.541 1.35-0.874 2.205-0.874h38.355c0.858 0 1.635 0.33 2.208 0.867l-21.386 18.333-21.382-18.326zM0 29.392v-26.582l15.466 13.443-15.466 13.139zM22.4 22.4l5.542-4.851 15.837 13.581c-0.573 0.538-1.347 0.87-2.202 0.87h-38.355c-0.858 0-1.635-0.333-2.211-0.87l15.846-13.581 5.542 4.851z"></path>
</symbol>
<symbol id="map" viewBox="0 0 24 32">
<title>map</title>
<path d="M12 0c-6.616 0-12 5.198-12 11.588 0 7.93 10.738 19.574 11.196 20.064 0.43 0.464 1.18 0.462 1.608 0 0.458-0.49 11.196-12.134 11.196-20.064 0-6.39-5.384-11.588-12-11.588zM12 17.42c-3.33 0-6.038-2.616-6.038-5.832 0-3.214 2.708-5.83 6.038-5.83s6.038 2.616 6.038 5.83c0 3.216-2.708 5.832-6.038 5.832z"></path>
</symbol>
<symbol id="phone" viewBox="0 0 34 32">
<title>phone</title>
<path d="M33.431 19.979l-2.441-0.548c1.862-7.639-3.108-15.305-11.074-17.090l0.568-2.34c9.312 2.088 15.119 11.048 12.947 19.977zM19.499 4.045l-0.57 2.338c5.643 1.263 9.163 6.696 7.844 12.105l2.441 0.544c1.63-6.697-2.729-13.423-9.715-14.987zM18.483 8.218l-0.57 2.342c3.243 0.723 5.267 3.846 4.506 6.955l2.441 0.546c1.071-4.399-1.79-8.817-6.377-9.843zM3.13 16.154c1.060 1.973 2.187 3.908 3.373 5.811l-0.009 0.006c0.034 0.051 0.070 0.098 0.104 0.149 0.032 0.053 0.062 0.105 0.092 0.154l0.011-0.006c1.254 1.862 2.564 3.689 3.94 5.474 3.595 4.668 9.737 5.532 13.139 2.332 0.151-0.136 0.331-0.245 0.452-0.407 0.713-0.956 1.047-2.144 1.592-3.2 0.693-1.355-5.487-5.673-6.517-4.028-0.378 0.614-1.212 2.626-1.779 3.078-0.506 0.405-1.395-0.040-1.871-0.657-1.256-1.626-2.543-3.893-3.708-5.719h0.002c-0.032-0.049-0.066-0.102-0.098-0.151-0.034-0.051-0.068-0.105-0.098-0.152l-0.004 0.002c-1.192-1.813-2.741-3.923-3.704-5.722-0.367-0.683-0.39-1.645 0.215-1.899 0.674-0.288 2.925-0.113 3.665-0.168 1.993-0.154 0.693-7.383-0.879-7.386-1.229 0.002-2.488-0.239-3.697-0.047-0.207 0.030-0.388 0.139-0.582 0.207-4.497 1.506-6.409 7.17-3.639 12.329z"></path>
</symbol>
<symbol id="reload" viewBox="0 0 33 32">
<title>reload</title>
<path d="M32.554 18.787c-0.583 0.958-2.457 1.186-3.464 1.271-0.971 0.013-1.947 0.007-2.917-0.029l-2.403-5.094-0.001-0.128-0.039 0.051-0.295-0.64c2.008-1.195 4.017-2.386 6.027-3.579 1.312 1.976 2.513 4.154 3.301 7.063 0.059 0.181 0.083 0.374 0.083 0.561l-0.237 0.426c-0.019 0.031-0.034 0.066-0.056 0.097zM16.046 9.802l3.225-1.847c-0.795-1.845-1.713-3.574-2.689-5.239-1.096-1.622-2.23-2.719-3.447-2.673 3.074-0.016 6.146-0.030 9.221-0.043 1.712 0.763 2.842 2.255 3.728 4.048l3.257-1.866-3.938 8.513-9.357-0.893zM16.062 3.040c0.422 0.718 0.826 1.445 1.213 2.176l-4.158 5.801c-2.030-1.159-4.059-2.318-6.087-3.478 1.083-2.107 2.406-4.217 4.566-6.328 0.267-0.285 0.618-0.47 1.049-0.555h0.461l0.323 0.014c1.065 0.176 2.098 1.577 2.633 2.37zM9.253 11.64l4.65 8.134-3.377-1.566c-1.053 1.714-1.943 3.455-2.751 5.206-0.701 1.826-0.952 3.381-0.215 4.345-1.783-2.493-3.562-4.987-5.343-7.486-0.354-1.832 0.218-3.607 1.182-5.365l-3.406-1.576 9.259-1.693zM9.538 21.199l6.779 0.047c0.217 2.318 0.433 4.639 0.648 6.959-2.357 0.327-4.847 0.47-7.824-0.080-0.28-0.040-0.545-0.138-0.791-0.311l-0.29-0.407c-0.024-0.032-0.046-0.063-0.066-0.094-0.618-0.938-0.018-2.717 0.345-3.661 0.382-0.831 0.779-1.648 1.199-2.454zM23.213 20.434c2.006 0.209 3.966 0.263 5.905 0.232 1.953-0.158 3.472-0.601 4.032-1.679-1.495 2.673-2.986 5.349-4.48 8.025-1.512 1.106-3.37 1.359-5.371 1.249l0.037 3.738-5.523-7.592 5.363-7.681 0.038 3.707z"></path>
</symbol>
<symbol id="ruka" viewBox="0 0 55 32">
<title>ruka</title>
<path d="M53.012 21.227l-6.206 1c-0.413 0.066-0.893-0.276-1.166-0.651-1.080-2.758-7.025-13.323-8.594-15.165-0.239-0.171-0.305-0.579-0.338-0.783 0.175-0.238 0.349-0.475 0.523-0.712 0.207-0.034 4.43-2.807 12.497-4.105 0.62-0.101 1.1 0.241 1.199 0.853l2.956 18.376c0.099 0.613-0.25 1.088-0.87 1.187zM42.895 20.342c-1.743-1.605-5.035-3.589-8.291-5.368-2.126-1.333-4.216-2.462-5.416-3.317-0.207 0.032-0.654-0.105-0.861-0.072-0.206 0.034-0.206 0.034-0.413 0.067-0.588 0.303-0.969 0.574-1.35 0.846-0.587 0.303-0.762 0.541-1.382 0.64-0.413 0.067-0.588 0.305-0.762 0.542-1.086 2.479-2.568 2.507-3.666 2.266-0.448-0.137-0.448-0.137-0.48-0.341-0.338-0.785 0.367-2.993 1.585-4.655 2.786-3.799 4.308-4.882 8.294-3.848 1.754 0.346 3.747 0.864 5.914 1.143 1.33 1.672 4.93 8.213 7.035 12.066l-0.207 0.032zM18.097 16.583c0.338 0.783 1.091 1.499 2.158 1.538 2.408 0.451 4.344-0.699 5.67-3.006 0.827-0.134 1.003-0.37 1.589-0.675-0.032-0.204 0.381-0.271 0.555-0.509 1.406 0.821 3.258 1.781 5.143 2.944 3.497 1.95 7.441 4.040 8.564 5.743 0.546 0.75 0.23 1.429 0.056 1.667-0.381 0.271-0.762 0.541-1.208 0.404l-6.952-4.955c-0.48-0.343-1.1-0.242-1.448 0.233-0.349 0.474-0.25 1.086 0.23 1.428l6.711 4.786c-0.14 0.44-0.521 0.712-0.695 0.949-0.588 0.303-1.416 0.437-1.656 0.265l-5.992-4.271c-0.48-0.341-1.1-0.242-1.449 0.233-0.347 0.474-0.248 1.086 0.23 1.429l5.513 3.93c-0.108 0.646-0.248 1.088-0.837 1.391-0.413 0.067-0.794 0.338-1.274-0.005l-4.794-3.418c-0.48-0.341-1.1-0.241-1.448 0.233-0.349 0.475-0.25 1.088 0.229 1.429l3.835 2.735c-0.206 0.034-0.413 0.066-0.62 0.099-0.62 0.101-1.928-0.108-2.613-0.418-0.926-0.478-6.002-3.014-10.459-5.647-0.686-0.309-1.678-1.196-2.636-1.88 0.574-3.025 1.169-8.567 1.338-12.783l4.139-0.666c-1.219 1.662-2.621 4.821-1.879 6.796zM11.311 25.843l-6.206 1c-0.62 0.099-1.1-0.242-1.199-0.855l-2.956-18.376c-0.032-0.204 0.108-0.646 0.282-0.884 0.175-0.238 0.381-0.271 0.588-0.303 2.309-0.163 9.408-0.887 11.325 0.482 0.446 0.137 0.514 0.546 0.546 0.75 0.44 5.374-1.542 16.795-1.443 17.408-0.142 0.442-0.523 0.713-0.936 0.779z"></path>
</symbol>
<symbol id="search" viewBox="0 0 30 32">
<title>search</title>
<path d="M29.532 29.146l-7.394-7.92c1.902-2.328 2.942-5.258 2.942-8.306 0-7.124-5.626-12.92-12.542-12.92-6.914 0-12.54 5.796-12.54 12.92s5.626 12.92 12.54 12.92c2.598 0 5.072-0.808 7.186-2.338l7.45 7.98c0.312 0.334 0.73 0.518 1.178 0.518 0.426 0 0.828-0.168 1.134-0.47 0.65-0.646 0.672-1.714 0.046-2.384zM12.538 3.37c5.112 0 9.272 4.284 9.272 9.55s-4.16 9.55-9.272 9.55c-5.11 0-9.27-4.284-9.27-9.55s4.16-9.55 9.27-9.55z"></path>
</symbol>
<symbol id="setting" viewBox="0 0 28 32">
<title>setting</title>
<path d="M27.299 21.419l-0.726 0.453c0.087 0.527 0.105 1.063 0.057 1.598l0.771 0.384c0.39 0.195 0.569 0.654 0.42 1.067l-0.485 1.346c-0.152 0.411-0.586 0.65-1.010 0.551l-0.854-0.197c-0.31 0.445-0.679 0.847-1.094 1.199l0.29 0.873c0.138 0.415-0.056 0.871-0.452 1.059l-1.286 0.612c-0.395 0.188-0.865 0.050-1.094-0.323l-0.49-0.798c-0.538 0.093-1.085 0.117-1.63 0.069l-0.427 0.857c-0.196 0.394-0.654 0.577-1.063 0.431l-1.333-0.479c-0.408-0.149-0.642-0.584-0.54-1.011l0.229-0.97c-0.414-0.298-0.79-0.649-1.12-1.042l-0.922 0.314c-0.413 0.142-0.864-0.050-1.049-0.448l-0.598-1.289c-0.184-0.397-0.042-0.87 0.329-1.103l0.833-0.522c-0.081-0.491-0.105-0.988-0.071-1.483l-0.863-0.43c-0.39-0.194-0.569-0.654-0.42-1.067l0.485-1.345c0.151-0.412 0.585-0.65 1.009-0.552l0.888 0.205c0.302-0.445 0.659-0.85 1.061-1.208l-0.287-0.871c-0.138-0.415 0.056-0.871 0.452-1.059l1.288-0.618c0.396-0.189 0.865-0.050 1.094 0.323l0.449 0.733c0.567-0.115 1.144-0.147 1.72-0.1l0.378-0.758c0.196-0.394 0.654-0.577 1.063-0.431l1.333 0.479c0.408 0.149 0.642 0.584 0.541 1.011l-0.195 0.827c0.46 0.322 0.875 0.703 1.23 1.138l0.779-0.264c0.413-0.142 0.865 0.050 1.049 0.447l0.598 1.289c0.184 0.397 0.040 0.873-0.338 1.105zM21.272 20.316c-1.439-0.519-3.039 0.242-3.562 1.696-0.527 1.452 0.217 3.057 1.657 3.573 1.438 0.519 3.038-0.242 3.562-1.696 0.526-1.452-0.217-3.057-1.657-3.573zM19.136 8.2l-1.069 0.55c0.051 0.649 0.022 1.304-0.094 1.949l1.036 0.633c0.378 0.23 0.52 0.708 0.335 1.112l-0.864 1.882c-0.186 0.403-0.641 0.606-1.062 0.47l-1.17-0.381c-0.424 0.512-0.915 0.962-1.453 1.348l0.296 1.254c0.103 0.433-0.13 0.875-0.545 1.031l-1.927 0.726c-0.414 0.154-0.876-0.025-1.076-0.421l-0.587-1.165c-0.664 0.057-1.332 0.029-1.989-0.086l-0.689 1.138c-0.231 0.382-0.707 0.53-1.107 0.347l-1.863-0.856c-0.398-0.183-0.597-0.64-0.458-1.065l0.428-1.311c-0.474-0.408-0.895-0.872-1.256-1.385l-1.31 0.326c-0.43 0.107-0.868-0.124-1.021-0.541l-0.705-1.934c-0.15-0.416 0.031-0.883 0.426-1.087l1.212-0.622c-0.049-0.602-0.027-1.21 0.064-1.81l-1.146-0.698c-0.377-0.231-0.52-0.709-0.335-1.112l0.864-1.882c0.186-0.404 0.641-0.607 1.062-0.471l1.209 0.395c0.41-0.514 0.885-0.972 1.411-1.364l-0.296-1.246c-0.103-0.434 0.13-0.875 0.546-1.032l1.927-0.726c0.414-0.153 0.876 0.025 1.076 0.421l0.542 1.081c0.701-0.078 1.407-0.060 2.101 0.057l0.621-1.024c0.232-0.382 0.708-0.53 1.108-0.346l1.862 0.855c0.399 0.184 0.597 0.641 0.458 1.065l-0.371 1.139c0.526 0.44 0.989 0.947 1.379 1.511l1.13-0.283c0.431-0.107 0.869 0.125 1.021 0.542l0.704 1.929c0.15 0.416-0.031 0.883-0.426 1.087zM11.774 6.308c-1.697-0.779-3.72-0.018-4.508 1.697-0.787 1.715-0.045 3.745 1.652 4.524s3.72 0.018 4.507-1.697c0.788-1.715 0.046-3.745-1.651-4.524zM1.924 21.797l0.572 0.194c0.278-0.342 0.6-0.64 0.953-0.898l-0.134-0.588c-0.098-0.43 0.139-0.863 0.552-1.014l0.825-0.3c0.413-0.15 0.865 0.034 1.058 0.428l0.242 0.501c0.467-0.045 0.938-0.028 1.4 0.055l0.288-0.463c0.232-0.374 0.705-0.515 1.098-0.327l0.785 0.372c0.395 0.185 0.585 0.643 0.444 1.058l-0.178 0.518c0.347 0.297 0.651 0.639 0.907 1.019l0.512-0.12c0.427-0.101 0.856 0.134 1.002 0.548l0.29 0.824c0.146 0.415-0.041 0.871-0.434 1.068l-0.494 0.246c0.028 0.434 0 0.871-0.079 1.3l0.475 0.298c0.371 0.231 0.507 0.706 0.317 1.103l-0.375 0.793c-0.187 0.399-0.643 0.595-1.055 0.455l-0.543-0.185c-0.287 0.338-0.615 0.634-0.981 0.886l0.133 0.591c0.097 0.429-0.139 0.863-0.552 1.013l-0.821 0.299c-0.413 0.15-0.865-0.035-1.058-0.428l-0.273-0.557c-0.446 0.033-0.888 0.009-1.326-0.073l-0.334 0.54c-0.232 0.375-0.705 0.516-1.098 0.328l-0.786-0.372c-0.394-0.186-0.585-0.643-0.443-1.059l0.215-0.634c-0.312-0.274-0.587-0.586-0.826-0.932l-0.631 0.149c-0.428 0.101-0.857-0.133-1.002-0.548l-0.29-0.824c-0.147-0.414 0.040-0.87 0.434-1.067l0.588-0.295c-0.031-0.403-0.011-0.806 0.056-1.207l-0.546-0.342c-0.37-0.231-0.507-0.706-0.317-1.103l0.376-0.794c0.187-0.398 0.643-0.594 1.055-0.454zM5.478 27.36c1.126 0.532 2.481 0.043 3.017-1.095 0.539-1.139 0.063-2.497-1.063-3.030-1.127-0.533-2.481-0.044-3.018 1.094s-0.063 2.498 1.064 3.031z"></path>
</symbol>
<symbol id="user" viewBox="0 0 32 32">
<title>user</title>
<path d="M31.707 31.168c-0.335 0.52-0.903 0.83-1.517 0.83h-28.379c-0.615 0-1.182-0.31-1.517-0.83s-0.386-1.169-0.136-1.736l3.619-8.232c0.167-0.376 0.456-0.689 0.819-0.879l5.617-2.951c0.125-0.066 0.275-0.054 0.386 0.032 1.59 1.213 3.458 1.854 5.403 1.854s3.813-0.642 5.403-1.854c0.111-0.086 0.261-0.098 0.384-0.032l5.619 2.951c0.362 0.19 0.652 0.504 0.819 0.879l3.619 8.232c0.249 0.568 0.199 1.216-0.136 1.736zM16 16.953c-3.963 0-7.175-3.795-7.175-8.477 0-6.493 3.212-8.478 7.175-8.478s7.175 1.986 7.175 8.478c0 4.682-3.212 8.477-7.175 8.477z"></path>
</symbol>
<symbol id="users" viewBox="0 0 39 32">
<title>users</title>
<path d="M23.449 5.49c1.797 1.102 3.056 2.967 3.287 5.134 0.731 0.334 1.545 0.528 2.407 0.528 3.147 0 5.698-2.498 5.698-5.577 0-3.081-2.551-5.579-5.698-5.579-3.118 0-5.646 2.453-5.694 5.495zM19.714 16.91c3.147 0 5.701-2.496 5.701-5.577s-2.553-5.577-5.701-5.577c-3.145 0-5.698 2.496-5.698 5.577s2.553 5.577 5.698 5.577zM22.133 17.289h-4.837c-4.023 0-7.296 3.205-7.296 7.143v5.79l0.014 0.089 0.409 0.126c3.84 1.175 7.175 1.566 9.92 1.566 5.365 0 8.473-1.497 8.665-1.593l0.379-0.187h0.041v-5.79c0-3.938-3.273-7.143-7.296-7.143zM31.561 11.531h-4.798c-0.053 1.879-0.871 3.573-2.167 4.789 3.575 1.040 6.192 4.288 6.192 8.121v1.783c4.738-0.169 7.467-1.483 7.648-1.573l0.382-0.187h0.039v-5.79c0-3.938-3.273-7.143-7.296-7.143zM9.714 11.152c1.115 0 2.153-0.318 3.031-0.862 0.281-1.783 1.257-3.342 2.651-4.402 0.007-0.105 0.016-0.208 0.016-0.313 0-3.081-2.551-5.577-5.698-5.577s-5.698 2.496-5.698 5.577c0 3.079 2.551 5.577 5.698 5.577zM14.834 16.32c-1.291-1.211-2.107-2.894-2.167-4.761-0.178-0.014-0.354-0.027-0.535-0.027h-4.837c-4.023 0-7.296 3.205-7.296 7.143v5.787l0.014 0.091 0.409 0.126c3.079 0.939 5.829 1.374 8.217 1.511v-1.749c0-3.833 2.615-7.079 6.194-8.121z"></path>
</symbol>
</defs>
</svg>
